<svg xmlns="http://www.w3.org/2000/svg" viewBox="0 0 837.71 207.06"><defs><style>.cls-1{fill:#666;}.cls-2{fill:#444;}</style></defs><title>00-home-image-001</title><g id="Layer_2" data-name="Layer 2"><g id="Layer_1-2" data-name="Layer 1"><path class="cls-1" d="M678.09,103.87H651.32L637,53.17l-.67.18v50.46H606c-1.12-3.3-1.48-94.91-.32-101.76h46.64l14.16,53.52c.88-2.22,1.49-3.41,1.83-4.68q6-22.34,11.9-44.7c.38-1.41.87-2.79,1.33-4.25h45V103.74H693.24V53.31l-1.12-.12Z"/><path class="cls-1" d="M60.59,104h-37L0,2H35.21c4,16.42,6.6,33.21,10.67,49.65l1-.11L57,2H90.42l10.77,49,1.18.08c4-16.21,6.23-32.84,10-49.13h33.66l-23.57,102H85.41L73.71,50.22l-1.22-.06C68.1,67.85,64.86,85.82,60.59,104Z"/><path class="cls-1" d="M533.34,0c7.87.39,15.6,1,23.15,3.48,18,5.86,27.88,18.45,31.21,36.66a71.08,71.08,0,0,1-.35,27.27c-3.89,18.94-15.15,31.13-33.94,35.82a78.75,78.75,0,0,1-42.35-.77C495.22,97.71,485.2,87.12,481,71.32A69.62,69.62,0,0,1,481,34.37c5.12-18.61,17.9-29,36.49-32.59C522.71.78,528.06.57,533.34,0ZM513.8,52.75h-.06c0,2.83-.18,5.67,0,8.48.78,10.59,7.73,17.78,17.44,18.47,12.45.89,19.67-5.3,21.84-15.17a53.57,53.57,0,0,0,0-23.28c-1.73-7.78-6.41-13.19-14.51-14.64-11.41-2-22.55,1.86-24.67,17.17C513.45,46.71,513.8,49.75,513.8,52.75Z"/><path class="cls-1" d="M158.61,2h87.54c1.3,3.88,1.42,21,.11,26.06H193.17V39.63h46.14v25H193.06v13h54.69V103.8H158.61Z"/><path class="cls-1" d="M747.52,103.85V2H835c1.14,3.44,1.36,20.09.23,25.92H782.12V39.61h45.56v25H782v13h53.87c1.28,3.91,1.5,20.42.44,26.27Z"/><path class="cls-1" d="M432.15,44.84c-.29-1.54-.57-2.67-.71-3.81-1.39-11.27-10-17.16-21-14.42-7.15,1.77-12.08,7.46-12.58,15.56a152.8,152.8,0,0,0,0,20.91c1.05,13.92,14,21,26.62,14.75A13.71,13.71,0,0,0,432.24,67c.25-1.62.48-3.23.76-5.08h31.6c-.33,13.51-3.48,25.46-14.73,33.91-8.23,6.18-17.67,9-27.88,9.47-8.33.41-16.69.59-24.83-1.46-20.62-5.2-30.78-18.73-33.87-38.55A77,77,0,0,1,365,33.11c4.72-17.58,16.41-27.76,33.9-31.29C410.56-.54,422.41-.59,434,2.69c16.31,4.62,27.55,15.39,29.84,33.52.35,2.76.67,5.52,1.05,8.63Z"/><path class="cls-1" d="M352.19,76.58v27.33H266.73V2.06h33.92V76.43c6.18.05,11.77.12,17.35.14s11.32,0,17,0Z"/><path class="cls-1" d="M377.43,142h29.29l8.5,32.21,1.42,0L425.07,142h28.37v63.7H432.57c-.2-10.28-.27-20.74.3-31.22l-1.2-.21-8.8,31.56H406.32l-8.51-30.36-.94.13v30.11H377.43Z"/><path class="cls-1" d="M56.15,172.52c.35.5.47.84.71,1,8.25,4.69,11,10.11,9.25,18.31a17.36,17.36,0,0,1-17,14.19c-14.65.35-29.31.09-44.35.09V142c1.1-.08,2.05-.21,3-.21,13,0,26-.15,39,.09a24,24,0,0,1,9.59,2.22c10.89,5.2,11.9,19.69,2.06,26.69C57.61,171.32,56.89,171.94,56.15,172.52Zm-30,18.2c5.08,0,9.69.13,14.28,0,2.91-.12,4.54-2.28,4.59-5.42,0-2.85-1.5-4.93-4.31-5-4.74-.19-9.49-.05-14.56-.05Zm-.11-24c4.78,0,9.07.16,13.34-.06,2.44-.13,3.77-2.13,3.94-5s-1-5.18-3.34-5.33c-4.56-.29-9.15-.08-13.94-.08Z"/><path class="cls-1" d="M567.62,183.68c0,3.89,0,7.53,0,11.17,0,3.49,0,7,0,10.87H546.48V142.13a23.86,23.86,0,0,1,2.9-.36c12.16,0,24.32-.15,36.48,0,7.29.11,13.71,2.48,18.12,8.78,5,7.1,4.5,20.32-4.91,26.7-1.1.74-2.22,1.44-4,2.55l13.6,26.11H585.4l-9-18.33C574,182.8,574,182.8,567.62,183.68Zm.36-26.51v11.52c4.46,0,8.58.2,12.67-.07,3-.19,4.68-2.75,4.65-6.05,0-3.07-1.67-5.19-4.69-5.35C576.52,157,572.41,157.16,568,157.16Z"/><path class="cls-1" d="M534,173.84a77.33,77.33,0,0,1-.77,7.93c-2.86,14.41-11.25,22.12-25.82,24.58a48.88,48.88,0,0,1-21.22-1.07c-11-3-17.76-10-20.41-21.06A43.94,43.94,0,0,1,466,162.5c2.68-10.22,9.24-16.76,19.29-19.72a48.15,48.15,0,0,1,27.55-.12c12.34,3.59,19.91,12.87,20.92,25.68.14,1.82,0,3.66,0,5.49Zm-21.54-.1c-.39-3-.45-6.07-1.22-8.92-1.63-6.08-6-8.91-12.78-8.69-6.06.2-10.79,3.73-11.48,9.68a67.5,67.5,0,0,0,0,15.88c.76,6.13,5.39,9.79,11.22,10.05,6.71.3,11.24-2.77,12.95-9.19A71.37,71.37,0,0,0,512.5,173.74Z"/><path class="cls-1" d="M99.91,181.17v9.33h34.31v15.36H78.53V142.15h54.89v14.79H100v8.62h28.63a107.69,107.69,0,0,1-.06,15.61Z"/><path class="cls-1" d="M675.42,142v15h-34v8.41h29.08a117.29,117.29,0,0,1,0,15.58H641.51v9.49h34c.89,5.24.29,10.11.4,15.29H620.8c-1.15-3.87-1.27-58.84-.1-63.8Z"/><path class="cls-1" d="M267.93,205.82l22.73-63.76h24.94l22.77,63.86h-22l-3-8.55h-21l-3.1,8.45Zm35.47-42.73-1.29.05-5.62,19.19H309Z"/><path class="cls-1" d="M741.71,189.51v16.31H689.09c-1-3.31-1.4-55-.37-62.86H709.6v46.55Z"/><path class="cls-1" d="M210.5,205.86V142.93h21.17v46.66h31.89v16.28Z"/><path class="cls-1" d="M773,189.69h32.3v16.17H752.92c-1.2-3.35-1.59-55.84-.41-62.88h20.42c.18,7.74.06,15.49.08,23.23S773,181.44,773,189.69Z"/><path class="cls-1" d="M168.07,189.7h32.32v16.06H147.75c-1.09-4-1.19-57.89-.07-62.86h20.38Z"/><path class="cls-1" d="M816.52,141.95h20.22c1.07,3.44,1.36,57.31.31,63.89H816.52Z"/><path class="cls-2" d="M377.27,137l-6.52-28.14h9.89l2.78,11.65,1,.1,2.72-11.83h9.51L399.49,121c2.78-3.86,1.8-8.3,3.79-12.12h9.21L406,137.07H395.32l-3.43-14.87-.87-.07L388,137Z"/><path class="cls-2" d="M447.16,137.23V108.8c7.21,0,14.3-.23,21.35.11a6.28,6.28,0,0,1,5.86,5.34c.7,3.36-.73,5.79-3.88,7.68a25.18,25.18,0,0,1,3.18,2.94,7.61,7.61,0,0,1,.7,8,7.17,7.17,0,0,1-6.8,4.28C461,137.33,454.34,137.23,447.16,137.23Zm9.5-11.89.32,5.2c2.12,0,4,.29,5.66-.11A3.59,3.59,0,0,0,465,128a3.53,3.53,0,0,0-2.25-2.52C461.06,125,459.19,125.34,456.66,125.34Zm.42-5.68c1.94,0,3.5.31,4.84-.1a4,4,0,0,0,2.47-2.37c.36-1.62-.71-2.8-2.53-2.87-1.58-.06-3.17,0-4.91,0-.13,1.38-.26,2.17-.25,3A18.74,18.74,0,0,0,457.09,119.66Z"/><path class="cls-2" d="M293.44,108.86h9.23v9.38h9.79l.71-9.37H322V137h-8.88l-.53-10.34H303V137h-9.59Z"/><path class="cls-2" d="M618.33,108.36a39.06,39.06,0,0,1,4.47.25c5.17.86,8.88,3.55,10.35,8.78,1.3,4.63,1.28,9.24-1,13.56-3,5.64-8.23,6.56-14,6.57s-11.09-.87-14-6.53a16.77,16.77,0,0,1,.08-16.27C607.22,109.12,612.55,108.12,618.33,108.36Zm5.82,15.22a32,32,0,0,0-.26-3.47c-.65-3.28-2.8-5.21-5.74-5.24s-5.19,1.78-5.67,5.2a20.7,20.7,0,0,0,.3,6.87c.51,2.53,2.46,3.88,5.06,4a5.36,5.36,0,0,0,5.66-4A21.41,21.41,0,0,0,624.15,123.58Z"/><path class="cls-2" d="M227.09,137.7c-5.7,0-10.75-1.37-13.49-6.78a17.27,17.27,0,0,1-.06-15.85c2.56-5.24,7.38-6.66,12.9-6.7,6,0,11.77.39,15.15,6.34,4.69,8.26,1,19.55-7.15,22C232.11,137.44,229.55,137.4,227.09,137.7Zm6.34-15c0-5.09-2-7.76-5.67-7.87s-6,2.79-6,8.05,2.11,8.19,5.92,8.13S233.49,128.12,233.44,122.72Z"/><path class="cls-2" d="M416.27,108.9H441v6.27H426v4.35h12.68v6.75H426v4.19h15.28v6.49h-25Z"/><path class="cls-2" d="M559,137v-28h24.7v6.27h-15v4.21h12.77v6.73H568.7v4.35h15.21V137Z"/><path class="cls-2" d="M354,130.54V137H329.19V108.92h24.57v6.32H338.69v4.21h12.8V126H338.92l-.47,4.49Z"/><path class="cls-2" d="M479.12,127.55h5.72a4.15,4.15,0,0,1,3.76,1.67c2.21,2.74,4.43,2.47,8-.68a52.57,52.57,0,0,0-4.91-2.17c-2.35-.76-4.86-1.1-7.16-2-3.8-1.48-5.4-4-5.3-7.58a7.39,7.39,0,0,1,5.16-7.22,23.12,23.12,0,0,1,15.6-.11c2.9,1,5.26,2.83,4.86,6.76-3.44.3-6.67,1.56-9.8-1.38-1.84-1.74-4.23-1.59-6.1,1.65a39.48,39.48,0,0,0,4.39,2c2.36.76,4.83,1.18,7.18,1.95,3.5,1.14,5.57,3.45,5.58,7.33s-1.41,7.06-5,8.4a24,24,0,0,1-17.49-.22C480.4,134.73,479.47,132.6,479.12,127.55Z"/><path class="cls-2" d="M639.4,108.82h23.16v6.33H649.25l-.59,5.21h11.86v6.88H649l-.44,9.69H639.4Z"/><path class="cls-2" d="M208.55,108.85V115l-9.21.6v21.31h-9.69V115.51l-9.29-.41v-6.25Z"/><path class="cls-2" d="M544.88,115.5V137h-9.6V115.5l-9-.4v-6.15H554l.28,6Z"/><path class="cls-2" d="M269.73,115.22h-9.28v-6.36H288.6v6.21l-9.26.41V137h-9.61Z"/><path class="cls-2" d="M511.43,108.84h9.28c.54,4.46.18,9.07.24,13.64s0,9.31,0,14.38h-9.54Z"/></g></g></svg>