<svg xmlns="http://www.w3.org/2000/svg" viewBox="0 0 1432.76 162.73"><defs><style>.cls-1{fill:#444;}</style></defs><title>04-portfolio-image-001</title><g id="Layer_2" data-name="Layer 2"><g id="Layer_1-2" data-name="Layer 1"><path class="cls-1" d="M471.09,95.64l33.13,63.51c-2.12.2-3.51.45-4.9.46-16.33,0-32.66-.09-49,.1-3.57,0-5.31-1.24-6.79-4.35-7.44-15.64-15.09-31.17-22.69-46.74-1.68-3.45-11.82-6.07-14.68-3.51-1,.87-1.13,3-1.14,4.57-.08,14.5,0,29-.06,43.49,0,6.44,0,6.45-6.66,6.45-14,0-28-.11-42,.07-3.81,0-5.23-1-5.22-5q.18-73.23,0-146.46c0-3.66,1.06-4.91,4.83-4.89,30.49.16,61-.06,91.47.24,16.67.17,31.69,5.24,42.38,18.8C508.43,46,500.73,80.1,474,94,473.12,94.39,472.32,94.92,471.09,95.64ZM421.42,66.18c3.83,0,7.66.09,11.49,0,7.52-.2,12.27-4.65,12.42-11.49.15-7-4.25-11.64-11.91-11.86-8.15-.23-16.32,0-24.47-.09-3.15,0-4,1.39-4,4.25.11,5,.15,10,0,15-.11,3.32,1.34,4.4,4.48,4.27C413.42,66.06,417.42,66.18,421.42,66.18Z"/><path class="cls-1" d="M243.92,0c9.58,1.81,21.78,3,33.28,6.51,22.64,6.87,37.43,22.4,44.14,45.14a104.59,104.59,0,0,1,.24,59.13c-6.42,22.57-20.76,38.21-43.06,45.64-25.25,8.42-50.83,8.56-76-.56-27.1-9.84-40.45-30.7-44.34-58.36a107.94,107.94,0,0,1,2.24-43.12c7.6-28.56,26.8-44.83,55.12-50.8C224,1.8,232.72,1.38,243.92,0ZM211.21,81.43l1,.08c0,4.49-.28,9,.05,13.47,1.12,14.93,10.64,24.72,25.25,26.25,15.1,1.58,27.57-5.56,31.25-19a78.35,78.35,0,0,0,.07-41c-3.27-12.44-13.78-19.35-27.6-19.4-13.64-.05-24,6.63-27.34,18.92C212.13,67.4,212.07,74.52,211.21,81.43Z"/><path class="cls-1" d="M1350.64,0c9.63,1.8,22,3,33.66,6.53,23.27,7.06,38.1,23.26,44.52,46.62a104.36,104.36,0,0,1-.55,58.66c-7.4,24.55-24,39.91-48.54,46.44-23.57,6.28-47.2,6.08-70.26-2.43-27.06-10-40.38-30.78-44.25-58.44a107.8,107.8,0,0,1,2.28-43.12c7.63-28.55,26.87-44.78,55.19-50.73C1331,1.82,1339.49,1.39,1350.64,0Zm-32.41,81.56,1,.08c0,4.49-.3,9,.06,13.47,1.21,15.11,11.13,25,25.9,26.15,16.3,1.26,28.38-6.85,31.41-22.09,2.48-12.48,2.69-25.22-.63-37.63s-13.47-19.48-27.37-19.72c-13.73-.24-24.4,6.64-27.74,19.06C1319.12,67.56,1319.07,74.68,1318.23,81.58Z"/><path class="cls-1" d="M921.75,0c9.69,1.84,22.06,3.05,33.71,6.62,23,7.06,37.75,23.14,44.24,46.29a104.79,104.79,0,0,1-.09,57.7c-6.39,22.56-20.66,38.27-42.95,45.76-25.24,8.48-50.83,8.62-76-.43-27.11-9.77-40.59-30.57-44.47-58.25-2.41-17.21-1.51-34.31,4.54-50.74,9-24.59,27.65-38.07,52.6-43.33C901.79,1.83,910.5,1.38,921.75,0Zm28,81.73c-.86-6.6-1.1-13.5-2.77-20-3.27-12.81-14.17-20.1-28.23-19.85-14.52.26-25.48,7.77-27.23,21.38a145.51,145.51,0,0,0,0,36.65c1.74,13.59,12.55,21.19,26.6,21.46,15,.28,25.63-6.8,29-20.11C948.6,95,948.84,88.44,949.71,81.73Z"/><path class="cls-1" d="M.1,81.69C.1,57.37.18,33,0,8.73,0,4.67,1.08,3.28,5.31,3.31c27,.19,54,0,81,.18,31.05.18,51.82,21.28,52.13,52.32.18,18.41-5.39,34.08-20.5,45.43a46.4,46.4,0,0,1-27.47,9.33q-16,.33-32,.07c-3.71-.06-5,1.16-4.91,4.87.16,13,0,26,.12,39,0,3.76-.94,5.28-5,5.21-14.32-.22-28.65-.24-43,0-4.35.08-5.7-1.11-5.66-5.57C.21,130,.1,105.84.1,81.69ZM53.62,57.46a69.77,69.77,0,0,0,.14,9.47c.18,1.29,1.84,3.32,2.91,3.38a164,164,0,0,0,18,0c4.83-.29,7.91-3.31,9.13-8,3-11.25-2.09-17.86-13.65-18.05-1.16,0-2.33,0-3.5,0C53.59,44.37,53.59,44.37,53.62,57.46Z"/><path class="cls-1" d="M690.17,81.46c0-24.16.1-48.33-.09-72.49,0-4.32,1.11-5.7,5.59-5.68q58.24.25,116.48,0c4.16,0,5.47,1.24,5.36,5.38q-.38,15.49,0,31c.1,4.05-1.36,5-5.18,5-21-.15-42,0-63-.15-4.08,0-5.79,1.1-5.44,5.32a68.13,68.13,0,0,1,0,10.49c-.3,4.16,1.38,5.49,5.47,5.45,17-.16,34-.07,51-.06,6.9,0,6.91,0,6.91,6.72,0,9.33-.17,18.67.08,28,.11,4-1.22,5.15-5.13,5.11-17.5-.17-35,.09-52.49-.18-4.73-.07-5.94,1.55-5.87,6,.22,14.33-.05,28.66.16,43,.06,4.2-1.35,5.39-5.46,5.33-14.33-.22-28.66-.27-43,0-4.62.1-5.52-1.59-5.5-5.78C690.26,129.79,690.17,105.63,690.17,81.46Z"/><path class="cls-1" d="M592,3.39c23.48,0,47,.09,70.45-.09,4.37,0,6.18.91,6,5.73-.36,10.65-.31,21.32,0,32,.12,4.49-1.13,6.1-5.82,6-12.65-.29-25.32.07-38-.19-4.41-.09-5.66,1.3-5.64,5.68.17,33.31.09,66.62.09,99.93,0,7.19,0,7.19-7.41,7.19h-40c-6.42,0-6.44,0-6.44-6.67,0-33.31-.09-66.62.1-99.93,0-4.78-1.28-6.34-6.14-6.22-12.65.31-25.32-.07-38,.19-4.5.09-5.7-1.51-5.61-5.78q.37-16.23,0-32.48c-.09-4.1,1.19-5.46,5.38-5.43C544.71,3.48,568.36,3.39,592,3.39Z"/><path class="cls-1" d="M1160.35,159.35c-2.47.11-4.26.26-6.05.26-39.66,0-79.32-.1-119,.14-5.32,0-6.27-1.73-6.26-6.55q.24-71.74,0-143.48c0-4.94,1.14-6.61,6.34-6.47,14,.37,28,.3,42,0C1081.86,3.2,1083,4.68,1083,9c-.14,33.49-.08,67-.07,100.48,0,6.85,0,6.86,6.77,6.86,21.5,0,43,.19,64.49-.13,5.26-.08,6.4,1.59,6.27,6.48C1160.13,134.66,1160.35,146.65,1160.35,159.35Z"/><path class="cls-1" d="M1183,159.09V3.39h24.3c7.83,0,15.67.23,23.48-.09,4.33-.18,5.7,1.08,5.67,5.56-.19,31.14-.1,62.29-.1,93.44q0,26.23,0,52.46c0,2.58.28,4.94-3.65,4.91-15.82-.15-31.64-.07-47.47-.1A12.46,12.46,0,0,1,1183,159.09Z"/></g></g></svg>